<svg aria-roledescription="flowchart-v2" role="graphics-document document" viewBox="-8 -8 637.2421875 2028.484375" style="max-width: 637.242px; background-color: white;" xmlns:xlink="http://www.w3.org/1999/xlink" xmlns="http://www.w3.org/2000/svg" width="100%" id="my-svg"><style>#my-svg{font-family:"trebuchet ms",verdana,arial,sans-serif;font-size:16px;fill:#333;}#my-svg .error-icon{fill:#552222;}#my-svg .error-text{fill:#552222;stroke:#552222;}#my-svg .edge-thickness-normal{stroke-width:2px;}#my-svg .edge-thickness-thick{stroke-width:3.5px;}#my-svg .edge-pattern-solid{stroke-dasharray:0;}#my-svg .edge-pattern-dashed{stroke-dasharray:3;}#my-svg .edge-pattern-dotted{stroke-dasharray:2;}#my-svg .marker{fill:#333333;stroke:#333333;}#my-svg .marker.cross{stroke:#333333;}#my-svg svg{font-family:"trebuchet ms",verdana,arial,sans-serif;font-size:16px;}#my-svg .label{font-family:"trebuchet ms",verdana,arial,sans-serif;color:#333;}#my-svg .cluster-label text{fill:#333;}#my-svg .cluster-label span,#my-svg p{color:#333;}#my-svg .label text,#my-svg span,#my-svg p{fill:#333;color:#333;}#my-svg .node rect,#my-svg .node circle,#my-svg .node ellipse,#my-svg .node polygon,#my-svg .node path{fill:#ECECFF;stroke:#9370DB;stroke-width:1px;}#my-svg .flowchart-label text{text-anchor:middle;}#my-svg .node .katex path{fill:#000;stroke:#000;stroke-width:1px;}#my-svg .node .label{text-align:center;}#my-svg .node.clickable{cursor:pointer;}#my-svg .arrowheadPath{fill:#333333;}#my-svg .edgePath .path{stroke:#333333;stroke-width:2.0px;}#my-svg .flowchart-link{stroke:#333333;fill:none;}#my-svg .edgeLabel{background-color:#e8e8e8;text-align:center;}#my-svg .edgeLabel rect{opacity:0.5;background-color:#e8e8e8;fill:#e8e8e8;}#my-svg .labelBkg{background-color:rgba(232, 232, 232, 0.5);}#my-svg .cluster rect{fill:#ffffde;stroke:#aaaa33;stroke-width:1px;}#my-svg .cluster text{fill:#333;}#my-svg .cluster span,#my-svg p{color:#333;}#my-svg div.mermaidTooltip{position:absolute;text-align:center;max-width:200px;padding:2px;font-family:"trebuchet ms",verdana,arial,sans-serif;font-size:12px;background:hsl(80, 100%, 96.2745098039%);border:1px solid #aaaa33;border-radius:2px;pointer-events:none;z-index:100;}#my-svg .flowchartTitleText{text-anchor:middle;font-size:18px;fill:#333;}#my-svg :root{--mermaid-font-family:"trebuchet ms",verdana,arial,sans-serif;}</style><g><marker orient="auto" markerHeight="12" markerWidth="12" markerUnits="userSpaceOnUse" refY="5" refX="6" viewBox="0 0 10 10" class="marker flowchart" id="my-svg_flowchart-pointEnd"><path style="stroke-width: 1; stroke-dasharray: 1, 0;" class="arrowMarkerPath" d="M 0 0 L 10 5 L 0 10 z"/></marker><marker orient="auto" markerHeight="12" markerWidth="12" markerUnits="userSpaceOnUse" refY="5" refX="4.5" viewBox="0 0 10 10" class="marker flowchart" id="my-svg_flowchart-pointStart"><path style="stroke-width: 1; stroke-dasharray: 1, 0;" class="arrowMarkerPath" d="M 0 5 L 10 10 L 10 0 z"/></marker><marker orient="auto" markerHeight="11" markerWidth="11" markerUnits="userSpaceOnUse" refY="5" refX="11" viewBox="0 0 10 10" class="marker flowchart" id="my-svg_flowchart-circleEnd"><circle style="stroke-width: 1; stroke-dasharray: 1, 0;" class="arrowMarkerPath" r="5" cy="5" cx="5"/></marker><marker orient="auto" markerHeight="11" markerWidth="11" markerUnits="userSpaceOnUse" refY="5" refX="-1" viewBox="0 0 10 10" class="marker flowchart" id="my-svg_flowchart-circleStart"><circle style="stroke-width: 1; stroke-dasharray: 1, 0;" class="arrowMarkerPath" r="5" cy="5" cx="5"/></marker><marker orient="auto" markerHeight="11" markerWidth="11" markerUnits="userSpaceOnUse" refY="5.2" refX="12" viewBox="0 0 11 11" class="marker cross flowchart" id="my-svg_flowchart-crossEnd"><path style="stroke-width: 2; stroke-dasharray: 1, 0;" class="arrowMarkerPath" d="M 1,1 l 9,9 M 10,1 l -9,9"/></marker><marker orient="auto" markerHeight="11" markerWidth="11" markerUnits="userSpaceOnUse" refY="5.2" refX="-1" viewBox="0 0 11 11" class="marker cross flowchart" id="my-svg_flowchart-crossStart"><path style="stroke-width: 2; stroke-dasharray: 1, 0;" class="arrowMarkerPath" d="M 1,1 l 9,9 M 10,1 l -9,9"/></marker><g class="root"><g class="clusters"/><g class="edgePaths"><path marker-end="url(#my-svg_flowchart-pointEnd)" style="fill:none;" class="edge-thickness-normal edge-pattern-solid flowchart-link LS-A LE-B" id="L-A-B-0" d="M263.895,34L263.895,38.167C263.895,42.333,263.895,50.667,263.895,58.117C263.895,65.567,263.895,72.133,263.895,75.417L263.895,78.7"/><path marker-end="url(#my-svg_flowchart-pointEnd)" style="fill:none;" class="edge-thickness-normal edge-pattern-solid flowchart-link LS-B LE-C" id="L-B-C-0" d="M263.895,118L263.895,122.167C263.895,126.333,263.895,134.667,263.961,142.2C264.027,149.734,264.159,156.467,264.225,159.834L264.291,163.201"/><path marker-end="url(#my-svg_flowchart-pointEnd)" style="fill:none;" class="edge-thickness-normal edge-pattern-solid flowchart-link LS-C LE-D" id="L-C-D-0" d="M290.186,279.552L296.183,289.517C302.179,299.482,314.172,319.413,320.168,334.245C326.164,349.077,326.164,358.81,326.164,363.677L326.164,368.544"/><path marker-end="url(#my-svg_flowchart-pointEnd)" style="fill:none;" class="edge-thickness-normal edge-pattern-solid flowchart-link LS-D LE-E" id="L-D-E-0" d="M326.164,407.844L326.164,412.01C326.164,416.177,326.164,424.51,320.719,432.35C315.274,440.189,304.383,447.535,298.938,451.207L293.493,454.88"/><path marker-end="url(#my-svg_flowchart-pointEnd)" style="fill:none;" class="edge-thickness-normal edge-pattern-solid flowchart-link LS-C LE-E" id="L-C-E-0" d="M238.603,279.552L232.44,289.517C226.277,299.482,213.951,319.413,207.788,337.962C201.625,356.51,201.625,373.677,201.625,389.26C201.625,404.844,201.625,418.844,207.07,429.516C212.515,440.189,223.406,447.535,228.851,451.207L234.296,454.88"/><path marker-end="url(#my-svg_flowchart-pointEnd)" style="fill:none;" class="edge-thickness-normal edge-pattern-solid flowchart-link LS-E LE-F" id="L-E-F-0" d="M263.895,491.844L263.895,496.01C263.895,500.177,263.895,508.51,263.895,515.96C263.895,523.41,263.895,529.977,263.895,533.26L263.895,536.544"/><path marker-end="url(#my-svg_flowchart-pointEnd)" style="fill:none;" class="edge-thickness-normal edge-pattern-solid flowchart-link LS-F LE-G" id="L-F-G-0" d="M311.304,575.844L322.924,580.01C334.544,584.177,357.784,592.51,369.47,600.044C381.155,607.577,381.288,614.311,381.354,617.678L381.42,621.045"/><path marker-end="url(#my-svg_flowchart-pointEnd)" style="fill:none;" class="edge-thickness-normal edge-pattern-solid flowchart-link LS-G LE-H" id="L-G-H-0" d="M331.479,769.643L316.272,783.65C301.065,797.658,270.652,825.673,243.176,845.075C215.701,864.476,191.163,875.265,178.894,880.66L166.625,886.054"/><path marker-end="url(#my-svg_flowchart-pointEnd)" style="fill:none;" class="edge-thickness-normal edge-pattern-solid flowchart-link LS-H LE-F" id="L-H-F-0" d="M116.625,888.188L114.431,882.438C112.238,876.688,107.851,865.188,105.658,837.576C103.465,809.964,103.465,766.24,103.465,724.099C103.465,681.958,103.465,641.401,118.526,617.179C133.587,592.958,163.709,585.072,178.77,581.129L193.831,577.186"/><path marker-end="url(#my-svg_flowchart-pointEnd)" style="fill:none;" class="edge-thickness-normal edge-pattern-solid flowchart-link LS-G LE-I" id="L-G-I-0" d="M396.294,804.917L397.692,813.045C399.089,821.174,401.884,837.431,403.282,850.426C404.68,863.421,404.68,873.154,404.68,878.021L404.68,882.888"/><path marker-end="url(#my-svg_flowchart-pointEnd)" style="fill:none;" class="edge-thickness-normal edge-pattern-solid flowchart-link LS-I LE-J" id="L-I-J-0" d="M404.68,922.188L404.68,926.354C404.68,930.521,404.68,938.854,404.68,946.304C404.68,953.754,404.68,960.321,404.68,963.604L404.68,966.888"/><path marker-end="url(#my-svg_flowchart-pointEnd)" style="fill:none;" class="edge-thickness-normal edge-pattern-solid flowchart-link LS-J LE-K" id="L-J-K-0" d="M404.68,1006.188L404.68,1010.354C404.68,1014.521,404.68,1022.854,404.68,1030.304C404.68,1037.754,404.68,1044.321,404.68,1047.604L404.68,1050.888"/><path marker-end="url(#my-svg_flowchart-pointEnd)" style="fill:none;" class="edge-thickness-normal edge-pattern-solid flowchart-link LS-K LE-L" id="L-K-L-0" d="M436.966,1090.188L444.879,1094.354C452.792,1098.521,468.619,1106.854,476.532,1114.304C484.445,1121.754,484.445,1128.321,484.445,1131.604L484.445,1134.888"/><path marker-end="url(#my-svg_flowchart-pointEnd)" style="fill:none;" class="edge-thickness-normal edge-pattern-solid flowchart-link LS-L LE-M" id="L-L-M-0" d="M484.445,1174.188L484.445,1178.354C484.445,1182.521,484.445,1190.854,484.511,1198.388C484.577,1205.921,484.709,1212.655,484.775,1216.022L484.841,1219.389"/><path marker-end="url(#my-svg_flowchart-pointEnd)" style="fill:none;" class="edge-thickness-normal edge-pattern-solid flowchart-link LS-M LE-N" id="L-M-N-0" d="M443.929,1364.968L433.445,1377.471C422.961,1389.974,401.992,1414.979,383.344,1432.753C364.696,1450.526,348.368,1461.068,340.205,1466.339L332.041,1471.61"/><path marker-end="url(#my-svg_flowchart-pointEnd)" style="fill:none;" class="edge-thickness-normal edge-pattern-solid flowchart-link LS-N LE-K" id="L-N-K-0" d="M294.773,1474.484L292.58,1468.734C290.387,1462.984,286,1451.484,283.807,1424.876C281.613,1398.268,281.613,1356.552,281.613,1316.419C281.613,1276.286,281.613,1237.737,281.613,1211.462C281.613,1185.188,281.613,1171.188,281.613,1157.188C281.613,1143.188,281.613,1129.188,292.986,1118.306C304.359,1107.425,327.105,1099.662,338.478,1095.781L349.851,1091.899"/><path marker-end="url(#my-svg_flowchart-pointEnd)" style="fill:none;" class="edge-thickness-normal edge-pattern-solid flowchart-link LS-M LE-O" id="L-M-O-0" d="M499.356,1391.574L500.814,1399.642C502.271,1407.71,505.186,1423.847,506.644,1436.783C508.102,1449.718,508.102,1459.451,508.102,1464.318L508.102,1469.184"/><path marker-end="url(#my-svg_flowchart-pointEnd)" style="fill:none;" class="edge-thickness-normal edge-pattern-solid flowchart-link LS-O LE-P" id="L-O-P-0" d="M508.102,1508.484L508.102,1512.651C508.102,1516.818,508.102,1525.151,508.102,1532.601C508.102,1540.051,508.102,1546.618,508.102,1549.901L508.102,1553.184"/><path marker-end="url(#my-svg_flowchart-pointEnd)" style="fill:none;" class="edge-thickness-normal edge-pattern-solid flowchart-link LS-P LE-Q" id="L-P-Q-0" d="M508.102,1592.484L508.102,1596.651C508.102,1600.818,508.102,1609.151,508.102,1616.601C508.102,1624.051,508.102,1630.618,508.102,1633.901L508.102,1637.184"/><path marker-end="url(#my-svg_flowchart-pointEnd)" style="fill:none;" class="edge-thickness-normal edge-pattern-solid flowchart-link LS-Q LE-R" id="L-Q-R-0" d="M508.102,1676.484L508.102,1680.651C508.102,1684.818,508.102,1693.151,508.102,1700.601C508.102,1708.051,508.102,1714.618,508.102,1717.901L508.102,1721.184"/><path marker-end="url(#my-svg_flowchart-pointEnd)" style="fill:none;" class="edge-thickness-normal edge-pattern-solid flowchart-link LS-R LE-S" id="L-R-S-0" d="M508.102,1760.484L508.102,1764.651C508.102,1768.818,508.102,1777.151,508.102,1784.601C508.102,1792.051,508.102,1798.618,508.102,1801.901L508.102,1805.184"/><path marker-end="url(#my-svg_flowchart-pointEnd)" style="fill:none;" class="edge-thickness-normal edge-pattern-solid flowchart-link LS-S LE-T" id="L-S-T-0" d="M508.102,1844.484L508.102,1848.651C508.102,1852.818,508.102,1861.151,508.102,1868.601C508.102,1876.051,508.102,1882.618,508.102,1885.901L508.102,1889.184"/><path marker-end="url(#my-svg_flowchart-pointEnd)" style="fill:none;" class="edge-thickness-normal edge-pattern-solid flowchart-link LS-T LE-U" id="L-T-U-0" d="M508.102,1928.484L508.102,1932.651C508.102,1936.818,508.102,1945.151,508.102,1952.601C508.102,1960.051,508.102,1966.618,508.102,1969.901L508.102,1973.184"/></g><g class="edgeLabels"><g class="edgeLabel"><g transform="translate(0, 0)" class="label"><foreignObject height="0" width="0"><div style="display: inline-block; white-space: nowrap;" xmlns="http://www.w3.org/1999/xhtml"><span class="edgeLabel"></span></div></foreignObject></g></g><g class="edgeLabel"><g transform="translate(0, 0)" class="label"><foreignObject height="0" width="0"><div style="display: inline-block; white-space: nowrap;" xmlns="http://www.w3.org/1999/xhtml"><span class="edgeLabel"></span></div></foreignObject></g></g><g transform="translate(326.1640625, 339.34375)" class="edgeLabel"><g transform="translate(-22.265625, -9.5)" class="label"><foreignObject height="19" width="44.53125"><div style="display: inline-block; white-space: nowrap;" xmlns="http://www.w3.org/1999/xhtml"><span class="edgeLabel">Belum</span></div></foreignObject></g></g><g class="edgeLabel"><g transform="translate(0, 0)" class="label"><foreignObject height="0" width="0"><div style="display: inline-block; white-space: nowrap;" xmlns="http://www.w3.org/1999/xhtml"><span class="edgeLabel"></span></div></foreignObject></g></g><g transform="translate(201.625, 390.84375)" class="edgeLabel"><g transform="translate(-8.0234375, -9.5)" class="label"><foreignObject height="19" width="16.046875"><div style="display: inline-block; white-space: nowrap;" xmlns="http://www.w3.org/1999/xhtml"><span class="edgeLabel">Ya</span></div></foreignObject></g></g><g class="edgeLabel"><g transform="translate(0, 0)" class="label"><foreignObject height="0" width="0"><div style="display: inline-block; white-space: nowrap;" xmlns="http://www.w3.org/1999/xhtml"><span class="edgeLabel"></span></div></foreignObject></g></g><g class="edgeLabel"><g transform="translate(0, 0)" class="label"><foreignObject height="0" width="0"><div style="display: inline-block; white-space: nowrap;" xmlns="http://www.w3.org/1999/xhtml"><span class="edgeLabel"></span></div></foreignObject></g></g><g transform="translate(240.23828125, 853.6875)" class="edgeLabel"><g transform="translate(-19.2890625, -9.5)" class="label"><foreignObject height="19" width="38.578125"><div style="display: inline-block; white-space: nowrap;" xmlns="http://www.w3.org/1999/xhtml"><span class="edgeLabel">Tidak</span></div></foreignObject></g></g><g class="edgeLabel"><g transform="translate(0, 0)" class="label"><foreignObject height="0" width="0"><div style="display: inline-block; white-space: nowrap;" xmlns="http://www.w3.org/1999/xhtml"><span class="edgeLabel"></span></div></foreignObject></g></g><g transform="translate(404.6796875, 853.6875)" class="edgeLabel"><g transform="translate(-8.0234375, -9.5)" class="label"><foreignObject height="19" width="16.046875"><div style="display: inline-block; white-space: nowrap;" xmlns="http://www.w3.org/1999/xhtml"><span class="edgeLabel">Ya</span></div></foreignObject></g></g><g class="edgeLabel"><g transform="translate(0, 0)" class="label"><foreignObject height="0" width="0"><div style="display: inline-block; white-space: nowrap;" xmlns="http://www.w3.org/1999/xhtml"><span class="edgeLabel"></span></div></foreignObject></g></g><g class="edgeLabel"><g transform="translate(0, 0)" class="label"><foreignObject height="0" width="0"><div style="display: inline-block; white-space: nowrap;" xmlns="http://www.w3.org/1999/xhtml"><span class="edgeLabel"></span></div></foreignObject></g></g><g class="edgeLabel"><g transform="translate(0, 0)" class="label"><foreignObject height="0" width="0"><div style="display: inline-block; white-space: nowrap;" xmlns="http://www.w3.org/1999/xhtml"><span class="edgeLabel"></span></div></foreignObject></g></g><g class="edgeLabel"><g transform="translate(0, 0)" class="label"><foreignObject height="0" width="0"><div style="display: inline-block; white-space: nowrap;" xmlns="http://www.w3.org/1999/xhtml"><span class="edgeLabel"></span></div></foreignObject></g></g><g transform="translate(381.0234375, 1439.984375)" class="edgeLabel"><g transform="translate(-19.2890625, -9.5)" class="label"><foreignObject height="19" width="38.578125"><div style="display: inline-block; white-space: nowrap;" xmlns="http://www.w3.org/1999/xhtml"><span class="edgeLabel">Tidak</span></div></foreignObject></g></g><g class="edgeLabel"><g transform="translate(0, 0)" class="label"><foreignObject height="0" width="0"><div style="display: inline-block; white-space: nowrap;" xmlns="http://www.w3.org/1999/xhtml"><span class="edgeLabel"></span></div></foreignObject></g></g><g transform="translate(508.1015625, 1439.984375)" class="edgeLabel"><g transform="translate(-8.0234375, -9.5)" class="label"><foreignObject height="19" width="16.046875"><div style="display: inline-block; white-space: nowrap;" xmlns="http://www.w3.org/1999/xhtml"><span class="edgeLabel">Ya</span></div></foreignObject></g></g><g class="edgeLabel"><g transform="translate(0, 0)" class="label"><foreignObject height="0" width="0"><div style="display: inline-block; white-space: nowrap;" xmlns="http://www.w3.org/1999/xhtml"><span class="edgeLabel"></span></div></foreignObject></g></g><g class="edgeLabel"><g transform="translate(0, 0)" class="label"><foreignObject height="0" width="0"><div style="display: inline-block; white-space: nowrap;" xmlns="http://www.w3.org/1999/xhtml"><span class="edgeLabel"></span></div></foreignObject></g></g><g class="edgeLabel"><g transform="translate(0, 0)" class="label"><foreignObject height="0" width="0"><div style="display: inline-block; white-space: nowrap;" xmlns="http://www.w3.org/1999/xhtml"><span class="edgeLabel"></span></div></foreignObject></g></g><g class="edgeLabel"><g transform="translate(0, 0)" class="label"><foreignObject height="0" width="0"><div style="display: inline-block; white-space: nowrap;" xmlns="http://www.w3.org/1999/xhtml"><span class="edgeLabel"></span></div></foreignObject></g></g><g class="edgeLabel"><g transform="translate(0, 0)" class="label"><foreignObject height="0" width="0"><div style="display: inline-block; white-space: nowrap;" xmlns="http://www.w3.org/1999/xhtml"><span class="edgeLabel"></span></div></foreignObject></g></g><g class="edgeLabel"><g transform="translate(0, 0)" class="label"><foreignObject height="0" width="0"><div style="display: inline-block; white-space: nowrap;" xmlns="http://www.w3.org/1999/xhtml"><span class="edgeLabel"></span></div></foreignObject></g></g></g><g class="nodes"><g transform="translate(263.89453125, 17)" data-id="A" data-node="true" id="flowchart-A-0" class="node default default flowchart-label"><rect height="34" width="52.78125" y="-17" x="-26.390625" ry="0" rx="0" style="" class="basic label-container"/><g transform="translate(-18.890625, -9.5)" style="" class="label"><rect/><foreignObject height="19" width="37.78125"><div style="display: inline-block; white-space: nowrap;" xmlns="http://www.w3.org/1999/xhtml"><span class="nodeLabel">Mulai</span></div></foreignObject></g></g><g transform="translate(263.89453125, 101)" data-id="B" data-node="true" id="flowchart-B-1" class="node default default flowchart-label"><rect height="34" width="295.859375" y="-17" x="-147.9296875" ry="0" rx="0" style="" class="basic label-container"/><g transform="translate(-140.4296875, -9.5)" style="" class="label"><rect/><foreignObject height="19" width="280.859375"><div style="display: inline-block; white-space: nowrap;" xmlns="http://www.w3.org/1999/xhtml"><span class="nodeLabel">Pengguna membuka website RentalHub</span></div></foreignObject></g></g><g transform="translate(263.89453125, 236.421875)" data-id="C" data-node="true" id="flowchart-C-3" class="node default default flowchart-label"><polygon style="" transform="translate(-68.421875,68.421875)" class="label-container" points="68.421875,0 136.84375,-68.421875 68.421875,-136.84375 0,-68.421875"/><g transform="translate(-43.921875, -9.5)" style="" class="label"><rect/><foreignObject height="19" width="87.84375"><div style="display: inline-block; white-space: nowrap;" xmlns="http://www.w3.org/1999/xhtml"><span class="nodeLabel">Sudah login?</span></div></foreignObject></g></g><g transform="translate(326.1640625, 390.84375)" data-id="D" data-node="true" id="flowchart-D-5" class="node default default flowchart-label"><rect height="34" width="163.03125" y="-17" x="-81.515625" ry="0" rx="0" style="" class="basic label-container"/><g transform="translate(-74.015625, -9.5)" style="" class="label"><rect/><foreignObject height="19" width="148.03125"><div style="display: inline-block; white-space: nowrap;" xmlns="http://www.w3.org/1999/xhtml"><span class="nodeLabel">Registrasi atau Login</span></div></foreignObject></g></g><g transform="translate(263.89453125, 474.84375)" data-id="E" data-node="true" id="flowchart-E-7" class="node default default flowchart-label"><rect height="34" width="231.734375" y="-17" x="-115.8671875" ry="0" rx="0" style="" class="basic label-container"/><g transform="translate(-108.3671875, -9.5)" style="" class="label"><rect/><foreignObject height="19" width="216.734375"><div style="display: inline-block; white-space: nowrap;" xmlns="http://www.w3.org/1999/xhtml"><span class="nodeLabel">Masuk ke Dashboard Customer</span></div></foreignObject></g></g><g transform="translate(263.89453125, 558.84375)" data-id="F" data-node="true" id="flowchart-F-11" class="node default default flowchart-label"><rect height="34" width="253.9375" y="-17" x="-126.96875" ry="0" rx="0" style="" class="basic label-container"/><g transform="translate(-119.46875, -9.5)" style="" class="label"><rect/><foreignObject height="19" width="238.9375"><div style="display: inline-block; white-space: nowrap;" xmlns="http://www.w3.org/1999/xhtml"><span class="nodeLabel">Pilih kendaraan dan tanggal sewa</span></div></foreignObject></g></g><g transform="translate(381.0234375, 722.515625)" data-id="G" data-node="true" id="flowchart-G-13" class="node default default flowchart-label"><polygon style="" transform="translate(-96.671875,96.671875)" class="label-container" points="96.671875,0 193.34375,-96.671875 96.671875,-193.34375 0,-96.671875"/><g transform="translate(-72.171875, -9.5)" style="" class="label"><rect/><foreignObject height="19" width="144.34375"><div style="display: inline-block; white-space: nowrap;" xmlns="http://www.w3.org/1999/xhtml"><span class="nodeLabel">Kendaraan tersedia?</span></div></foreignObject></g></g><g transform="translate(123.109375, 905.1875)" data-id="H" data-node="true" id="flowchart-H-15" class="node default default flowchart-label"><rect height="34" width="246.21875" y="-17" x="-123.109375" ry="0" rx="0" style="" class="basic label-container"/><g transform="translate(-115.609375, -9.5)" style="" class="label"><rect/><foreignObject height="19" width="231.21875"><div style="display: inline-block; white-space: nowrap;" xmlns="http://www.w3.org/1999/xhtml"><span class="nodeLabel">Pilih jadwal atau kendaraan lain</span></div></foreignObject></g></g><g transform="translate(404.6796875, 905.1875)" data-id="I" data-node="true" id="flowchart-I-19" class="node default default flowchart-label"><rect height="34" width="216.921875" y="-17" x="-108.4609375" ry="0" rx="0" style="" class="basic label-container"/><g transform="translate(-100.9609375, -9.5)" style="" class="label"><rect/><foreignObject height="19" width="201.921875"><div style="display: inline-block; white-space: nowrap;" xmlns="http://www.w3.org/1999/xhtml"><span class="nodeLabel">Buat booking status pending</span></div></foreignObject></g></g><g transform="translate(404.6796875, 989.1875)" data-id="J" data-node="true" id="flowchart-J-21" class="node default default flowchart-label"><rect height="34" width="197.890625" y="-17" x="-98.9453125" ry="0" rx="0" style="" class="basic label-container"/><g transform="translate(-91.4453125, -9.5)" style="" class="label"><rect/><foreignObject height="19" width="182.890625"><div style="display: inline-block; white-space: nowrap;" xmlns="http://www.w3.org/1999/xhtml"><span class="nodeLabel">Pilih metode pembayaran</span></div></foreignObject></g></g><g transform="translate(404.6796875, 1073.1875)" data-id="K" data-node="true" id="flowchart-K-23" class="node default default flowchart-label"><rect height="34" width="281.421875" y="-17" x="-140.7109375" ry="0" rx="0" style="" class="basic label-container"/><g transform="translate(-133.2109375, -9.5)" style="" class="label"><rect/><foreignObject height="19" width="266.421875"><div style="display: inline-block; white-space: nowrap;" xmlns="http://www.w3.org/1999/xhtml"><span class="nodeLabel">WhatsApp atau unggah bukti transfer</span></div></foreignObject></g></g><g transform="translate(484.4453125, 1157.1875)" data-id="L" data-node="true" id="flowchart-L-25" class="node default default flowchart-label"><rect height="34" width="222.828125" y="-17" x="-111.4140625" ry="0" rx="0" style="" class="basic label-container"/><g transform="translate(-103.9140625, -9.5)" style="" class="label"><rect/><foreignObject height="19" width="207.828125"><div style="display: inline-block; white-space: nowrap;" xmlns="http://www.w3.org/1999/xhtml"><span class="nodeLabel">Admin verifikasi pembayaran</span></div></foreignObject></g></g><g transform="translate(484.4453125, 1314.8359375)" data-id="M" data-node="true" id="flowchart-M-27" class="node default default flowchart-label"><polygon style="" transform="translate(-90.6484375,90.6484375)" class="label-container" points="90.6484375,0 181.296875,-90.6484375 90.6484375,-181.296875 0,-90.6484375"/><g transform="translate(-66.1484375, -9.5)" style="" class="label"><rect/><foreignObject height="19" width="132.296875"><div style="display: inline-block; white-space: nowrap;" xmlns="http://www.w3.org/1999/xhtml"><span class="nodeLabel">Pembayaran valid?</span></div></foreignObject></g></g><g transform="translate(301.2578125, 1491.484375)" data-id="N" data-node="true" id="flowchart-N-29" class="node default default flowchart-label"><rect height="34" width="165.359375" y="-17" x="-82.6796875" ry="0" rx="0" style="" class="basic label-container"/><g transform="translate(-75.1796875, -9.5)" style="" class="label"><rect/><foreignObject height="19" width="150.359375"><div style="display: inline-block; white-space: nowrap;" xmlns="http://www.w3.org/1999/xhtml"><span class="nodeLabel">Perbaiki pembayaran</span></div></foreignObject></g></g><g transform="translate(508.1015625, 1491.484375)" data-id="O" data-node="true" id="flowchart-O-33" class="node default default flowchart-label"><rect height="34" width="148.328125" y="-17" x="-74.1640625" ry="0" rx="0" style="" class="basic label-container"/><g transform="translate(-66.6640625, -9.5)" style="" class="label"><rect/><foreignObject height="19" width="133.328125"><div style="display: inline-block; white-space: nowrap;" xmlns="http://www.w3.org/1999/xhtml"><span class="nodeLabel">Booking confirmed</span></div></foreignObject></g></g><g transform="translate(508.1015625, 1575.484375)" data-id="P" data-node="true" id="flowchart-P-35" class="node default default flowchart-label"><rect height="34" width="164.8125" y="-17" x="-82.40625" ry="0" rx="0" style="" class="basic label-container"/><g transform="translate(-74.90625, -9.5)" style="" class="label"><rect/><foreignObject height="19" width="149.8125"><div style="display: inline-block; white-space: nowrap;" xmlns="http://www.w3.org/1999/xhtml"><span class="nodeLabel">Proses sewa berjalan</span></div></foreignObject></g></g><g transform="translate(508.1015625, 1659.484375)" data-id="Q" data-node="true" id="flowchart-Q-37" class="node default default flowchart-label"><rect height="34" width="226.28125" y="-17" x="-113.140625" ry="0" rx="0" style="" class="basic label-container"/><g transform="translate(-105.640625, -9.5)" style="" class="label"><rect/><foreignObject height="19" width="211.28125"><div style="display: inline-block; white-space: nowrap;" xmlns="http://www.w3.org/1999/xhtml"><span class="nodeLabel">Admin inspeksi pengembalian</span></div></foreignObject></g></g><g transform="translate(508.1015625, 1743.484375)" data-id="R" data-node="true" id="flowchart-R-39" class="node default default flowchart-label"><rect height="34" width="151.59375" y="-17" x="-75.796875" ry="0" rx="0" style="" class="basic label-container"/><g transform="translate(-68.296875, -9.5)" style="" class="label"><rect/><foreignObject height="19" width="136.59375"><div style="display: inline-block; white-space: nowrap;" xmlns="http://www.w3.org/1999/xhtml"><span class="nodeLabel">Booking completed</span></div></foreignObject></g></g><g transform="translate(508.1015625, 1827.484375)" data-id="S" data-node="true" id="flowchart-S-41" class="node default default flowchart-label"><rect height="34" width="177.265625" y="-17" x="-88.6328125" ry="0" rx="0" style="" class="basic label-container"/><g transform="translate(-81.1328125, -9.5)" style="" class="label"><rect/><foreignObject height="19" width="162.265625"><div style="display: inline-block; white-space: nowrap;" xmlns="http://www.w3.org/1999/xhtml"><span class="nodeLabel">Customer kirim review</span></div></foreignObject></g></g><g transform="translate(508.1015625, 1911.484375)" data-id="T" data-node="true" id="flowchart-T-43" class="node default default flowchart-label"><rect height="34" width="182.734375" y="-17" x="-91.3671875" ry="0" rx="0" style="" class="basic label-container"/><g transform="translate(-83.8671875, -9.5)" style="" class="label"><rect/><foreignObject height="19" width="167.734375"><div style="display: inline-block; white-space: nowrap;" xmlns="http://www.w3.org/1999/xhtml"><span class="nodeLabel">Admin moderasi review</span></div></foreignObject></g></g><g transform="translate(508.1015625, 1995.484375)" data-id="U" data-node="true" id="flowchart-U-45" class="node default default flowchart-label"><rect height="34" width="64.3125" y="-17" x="-32.15625" ry="0" rx="0" style="" class="basic label-container"/><g transform="translate(-24.65625, -9.5)" style="" class="label"><rect/><foreignObject height="19" width="49.3125"><div style="display: inline-block; white-space: nowrap;" xmlns="http://www.w3.org/1999/xhtml"><span class="nodeLabel">Selesai</span></div></foreignObject></g></g></g></g></g></svg>